# xmcd
#
# Track frame offsets:
#	150
#	21614
#	36966
#	57099
#	83792
#	107325
#	129073
#	157682
#	180376
#	206219
#
# Disc length: 3255 seconds
#
# Revision: 0
# Processed by: cddbd v1.5.2PL0 Copyright (c) Steve Scherf et al.
# Submitted via: dBpowerAMP V4.0
#
DISCID=740cb50a
DTITLE=Ericson Alexander Molano - No Fue En Vano
DYEAR=2008
DGENRE=Cristiana
TTITLE0=Generacion No Fue En Vano
TTITLE1=Ato Al Hombre Fuerte
TTITLE2=Celebrare
TTITLE3=Creo En Ti
TTITLE4=No Fue En Vano
TTITLE5=Me Amas, Me Cubres
TTITLE6=Manifiestate
TTITLE7=Toma Mi Vida
TTITLE8=Estar Contigo
TTITLE9=Te Doy Las Gracias
EXTD=
EXTT0=
EXTT1=
EXTT2=
EXTT3=
EXTT4=
EXTT5=
EXTT6=
EXTT7=
EXTT8=
EXTT9=
PLAYORDER=
